HIERARCHY
ROOT Hips
{
	OFFSET 0.000000 97.167313 0.000000
	CHANNELS 6 Xposition Yposition Zposition Xrotation Yrotation Zrotation
	JOINT Spine
	{
		OFFSET 0.000000 13.784798 0.064400
		CHANNELS 3 Xrotation Yrotation Zrotation
		JOINT Spine1
		{
			OFFSET 0.000000 12.037903 0.404700
			CHANNELS 3 Xrotation Yrotation Zrotation
			JOINT Spine2
			{
				OFFSET 0.000000 17.795601 0.420200
				CHANNELS 3 Xrotation Yrotation Zrotation
				JOINT Neck
				{
					OFFSET 0.000000 39.131302 11.954600
					CHANNELS 3 Xrotation Yrotation Zrotation
					JOINT Head
					{
						OFFSET 0.000000 14.456192 15.627699
						CHANNELS 3 Xrotation Yrotation Zrotation
						JOINT HeadTop_End
						{
							OFFSET 0.000000 15.703506 7.603401
							CHANNELS 3 Xrotation Yrotation Zrotation
							End Site
							{
								OFFSET 0.000000 17.447403 0.000000
							}
						}
					}
				}
				JOINT LeftShoulder
				{
					OFFSET 17.399500 24.608795 1.168800
					CHANNELS 3 Xrotation Yrotation Zrotation
					JOINT LeftArm
					{
						OFFSET 18.980635 5.765305 1.818600
						CHANNELS 3 Xrotation Yrotation Zrotation
						JOINT LeftForeArm
						{
							OFFSET 49.290169 0.000000 0.000000
							CHANNELS 3 Xrotation Yrotation Zrotation
							JOINT LeftHand
							{
								OFFSET 31.562012 0.000000 0.000000
								CHANNELS 3 Xrotation Yrotation Zrotation
								JOINT LeftHandThumb1
								{
									OFFSET 6.133995 -4.388519 7.076070
									CHANNELS 3 Xrotation Yrotation Zrotation
									JOINT LeftHandThumb2
									{
										OFFSET 6.037666 -3.485840 3.485847
										CHANNELS 3 Xrotation Yrotation Zrotation
										JOINT LeftHandThumb3
										{
											OFFSET 6.496506 -3.750763 3.750761
											CHANNELS 3 Xrotation Yrotation Zrotation
											JOINT LeftHandThumb4
											{
												OFFSET 5.616882 -3.242905 3.242910
												CHANNELS 3 Xrotation Yrotation Zrotation
												End Site
												{
													OFFSET -1.254608 7.132141 0.375429
												}
											}
										}
									}
								}
								JOINT LeftHandPinky1
								{
									OFFSET 18.920792 -0.453171 -11.426712
									CHANNELS 3 Xrotation Yrotation Zrotation
									JOINT LeftHandPinky2
									{
										OFFSET 4.919586 0.000000 0.000000
										CHANNELS 3 Xrotation Yrotation Zrotation
										JOINT LeftHandPinky3
										{
											OFFSET 5.233047 0.000000 0.000000
											CHANNELS 3 Xrotation Yrotation Zrotation
											JOINT LeftHandPinky4
											{
												OFFSET 5.571716 0.000000 0.000000
												CHANNELS 3 Xrotation Yrotation Zrotation
												End Site
												{
													OFFSET -3.459808 4.342407 -0.466164
												}
											}
										}
									}
								}
								JOINT LeftHandRing1
								{
									OFFSET 22.726120 -0.094986 -6.500475
									CHANNELS 3 Xrotation Yrotation Zrotation
									JOINT LeftHandRing2
									{
										OFFSET 6.408615 0.000000 0.000000
										CHANNELS 3 Xrotation Yrotation Zrotation
										JOINT LeftHandRing3
										{
											OFFSET 6.150223 0.000000 0.000000
											CHANNELS 3 Xrotation Yrotation Zrotation
											JOINT LeftHandRing4
											{
												OFFSET 6.145386 0.000000 0.000000
												CHANNELS 3 Xrotation Yrotation Zrotation
												End Site
												{
													OFFSET -3.671402 4.923981 -0.202372
												}
											}
										}
									}
								}
								JOINT LeftHandMiddle1
								{
									OFFSET 23.373947 0.000000 0.000001
									CHANNELS 3 Xrotation Yrotation Zrotation
									JOINT LeftHandMiddle2
									{
										OFFSET 6.996567 0.000000 0.000000
										CHANNELS 3 Xrotation Yrotation Zrotation
										JOINT LeftHandMiddle3
										{
											OFFSET 7.015945 0.000000 0.000000
											CHANNELS 3 Xrotation Yrotation Zrotation
											JOINT LeftHandMiddle4
											{
												OFFSET 7.721573 0.000000 0.000000
												CHANNELS 3 Xrotation Yrotation Zrotation
												End Site
												{
													OFFSET -4.651108 6.158463 0.251582
												}
											}
										}
									}
								}
								JOINT LeftHandIndex1
								{
									OFFSET 21.310577 -0.490082 6.209344
									CHANNELS 3 Xrotation Yrotation Zrotation
									JOINT LeftHandIndex2
									{
										OFFSET 7.536453 0.000000 0.000000
										CHANNELS 3 Xrotation Yrotation Zrotation
										JOINT LeftHandIndex3
										{
											OFFSET 7.512344 0.000000 0.000000
											CHANNELS 3 Xrotation Yrotation Zrotation
											JOINT LeftHandIndex4
											{
												OFFSET 10.212402 0.000000 0.000001
												CHANNELS 3 Xrotation Yrotation Zrotation
												End Site
												{
													OFFSET -5.180801 8.690506 1.388433
												}
											}
										}
									}
								}
							}
						}
					}
				}
				JOINT RightShoulder
				{
					OFFSET -17.399500 24.608795 1.168800
					CHANNELS 3 Xrotation Yrotation Zrotation
					JOINT RightArm
					{
						OFFSET -18.980635 5.765305 1.818600
						CHANNELS 3 Xrotation Yrotation Zrotation
						JOINT RightForeArm
						{
							OFFSET -49.290169 0.000000 0.000000
							CHANNELS 3 Xrotation Yrotation Zrotation
							JOINT RightHand
							{
								OFFSET -31.562012 0.000000 0.000000
								CHANNELS 3 Xrotation Yrotation Zrotation
								JOINT RightHandThumb1
								{
									OFFSET -6.133995 -4.388519 7.076070
									CHANNELS 3 Xrotation Yrotation Zrotation
									JOINT RightHandThumb2
									{
										OFFSET -6.037666 -3.485840 3.485847
										CHANNELS 3 Xrotation Yrotation Zrotation
										JOINT RightHandThumb3
										{
											OFFSET -6.496506 -3.750763 3.750761
											CHANNELS 3 Xrotation Yrotation Zrotation
											JOINT RightHandThumb4
											{
												OFFSET -5.616882 -3.242905 3.242910
												CHANNELS 3 Xrotation Yrotation Zrotation
												End Site
												{
													OFFSET 1.254608 7.132141 0.375429
												}
											}
										}
									}
								}
								JOINT RightHandIndex1
								{
									OFFSET -21.310577 -0.490082 6.209344
									CHANNELS 3 Xrotation Yrotation Zrotation
									JOINT RightHandIndex2
									{
										OFFSET -7.536453 0.000000 0.000000
										CHANNELS 3 Xrotation Yrotation Zrotation
										JOINT RightHandIndex3
										{
											OFFSET -7.512344 0.000000 0.000000
											CHANNELS 3 Xrotation Yrotation Zrotation
											JOINT RightHandIndex4
											{
												OFFSET -10.212402 0.000000 0.000001
												CHANNELS 3 Xrotation Yrotation Zrotation
												End Site
												{
													OFFSET 5.180801 8.690506 1.388433
												}
											}
										}
									}
								}
								JOINT RightHandMiddle1
								{
									OFFSET -23.373947 0.000000 0.000001
									CHANNELS 3 Xrotation Yrotation Zrotation
									JOINT RightHandMiddle2
									{
										OFFSET -6.996567 0.000000 0.000000
										CHANNELS 3 Xrotation Yrotation Zrotation
										JOINT RightHandMiddle3
										{
											OFFSET -7.015945 0.000000 0.000000
											CHANNELS 3 Xrotation Yrotation Zrotation
											JOINT RightHandMiddle4
											{
												OFFSET -7.721573 0.000000 0.000000
												CHANNELS 3 Xrotation Yrotation Zrotation
												End Site
												{
													OFFSET 4.651108 6.158463 0.251582
												}
											}
										}
									}
								}
								JOINT RightHandRing1
								{
									OFFSET -22.726120 -0.094986 -6.500475
									CHANNELS 3 Xrotation Yrotation Zrotation
									JOINT RightHandRing2
									{
										OFFSET -6.408615 0.000000 0.000000
										CHANNELS 3 Xrotation Yrotation Zrotation
										JOINT RightHandRing3
										{
											OFFSET -6.150223 0.000000 0.000000
											CHANNELS 3 Xrotation Yrotation Zrotation
											JOINT RightHandRing4
											{
												OFFSET -6.145386 0.000000 0.000000
												CHANNELS 3 Xrotation Yrotation Zrotation
												End Site
												{
													OFFSET 3.671402 4.923981 -0.202372
												}
											}
										}
									}
								}
								JOINT RightHandPinky1
								{
									OFFSET -18.920792 -0.453171 -11.426712
									CHANNELS 3 Xrotation Yrotation Zrotation
									JOINT RightHandPinky2
									{
										OFFSET -4.919586 0.000000 0.000000
										CHANNELS 3 Xrotation Yrotation Zrotation
										JOINT RightHandPinky3
										{
											OFFSET -5.233047 0.000000 0.000000
											CHANNELS 3 Xrotation Yrotation Zrotation
											JOINT RightHandPinky4
											{
												OFFSET -5.571716 0.000000 0.000000
												CHANNELS 3 Xrotation Yrotation Zrotation
												End Site
												{
													OFFSET 3.459808 4.342407 -0.466164
												}
											}
										}
									}
								}
							}
						}
					}
				}
			}
		}
	}
	JOINT LeftUpLeg
	{
		OFFSET 19.899099 -7.885101 -3.429500
		CHANNELS 3 Xrotation Yrotation Zrotation
		JOINT LeftLeg
		{
			OFFSET 1.745560 -36.997807 10.304700
			CHANNELS 3 Xrotation Yrotation Zrotation
			JOINT LeftFoot
			{
				OFFSET -1.745558 -29.803308 -13.615400
				CHANNELS 3 Xrotation Yrotation Zrotation
				JOINT LeftToeBase
				{
					OFFSET 1.181900 -18.539904 15.226099
					CHANNELS 3 Xrotation Yrotation Zrotation
					JOINT LeftToe_End
					{
						OFFSET -0.863701 1.402801 16.534700
						CHANNELS 3 Xrotation Yrotation Zrotation
						End Site
						{
							OFFSET 0.000000 16.616566 0.000000
						}
					}
				}
			}
		}
	}
	JOINT RightUpLeg
	{
		OFFSET -19.899099 -7.885101 -3.429500
		CHANNELS 3 Xrotation Yrotation Zrotation
		JOINT RightLeg
		{
			OFFSET -1.745560 -36.997807 10.304700
			CHANNELS 3 Xrotation Yrotation Zrotation
			JOINT RightFoot
			{
				OFFSET 1.745558 -29.803308 -13.615400
				CHANNELS 3 Xrotation Yrotation Zrotation
				JOINT RightToeBase
				{
					OFFSET -1.181900 -18.539904 15.226099
					CHANNELS 3 Xrotation Yrotation Zrotation
					JOINT RightToe_End
					{
						OFFSET 0.863701 1.402801 16.534700
						CHANNELS 3 Xrotation Yrotation Zrotation
						End Site
						{
							OFFSET 0.000000 16.616566 0.000000
						}
					}
				}
			}
		}
	}
}
MOTION
Frames: 5
Frame Time: 0.033333
-2.026219 91.203957 0.186984 1.168656 6.159490 5.699150 8.191344 -0.965798 6.621553 1.977286 -0.412823 1.344540 1.971130 -0.404078 1.350291 1.471620 0.251580 3.770398 -5.997195 -13.685520 -0.924700 0.000001 -0.000001 0.000001 0.635353 -5.283651 -12.880634 5.726505 -4.951275 -42.398635 0.000015 -65.564366 0.000002 -5.370039 -8.061421 -58.939697 -7.220047 -16.942344 15.004587 8.206663 0.329536 4.976439 -0.103921 -18.233014 11.581008 -0.000004 0.000002 -0.000001 9.474796 25.638717 -47.960014 1.102903 3.422970 -35.709636 0.497495 2.364441 -23.761222 -0.000000 0.000000 -0.000006 6.569930 12.601597 -38.071222 2.521142 4.813795 -55.264655 0.033472 0.626010 -6.120699 -0.000002 -0.000002 0.000005 0.832887 5.259377 -29.649144 1.128760 3.458574 -36.139979 0.564550 2.511086 -25.337405 -0.000002 -0.000001 0.000009 -0.931696 -1.396888 -13.797110 1.148782 3.485803 -36.471018 0.124352 1.201813 -11.812882 -0.000001 0.000001 0.000001 1.688119 19.320718 11.981030 -17.246747 18.683083 60.973140 -0.000460 95.131742 0.000488 -19.139428 -6.743524 -4.914001 17.887562 49.319078 12.919671 30.991942 -39.602854 28.049266 11.489450 -46.546810 8.464839 0.000003 -0.000000 -0.000003 3.343378 -6.897262 53.623265 1.487416 -3.413767 47.076515 0.006942 -0.254485 3.125537 -0.000001 0.000000 0.000004 3.298267 -6.778207 63.367032 1.097414 -3.004786 40.118192 0.322987 -1.705781 21.442812 -0.000001 0.000000 -0.000004 5.188534 -7.512431 67.475883 0.689910 -2.441244 31.557417 0.692966 -2.446184 31.628728 -0.000002 -0.000001 -0.000005 0.768513 -22.546627 59.828940 1.001592 -2.887411 38.254127 0.497043 -2.095252 26.686456 0.000000 -0.000000 0.000002 -8.076898 5.825184 2.839433 15.621449 3.510312 -0.491787 -5.979355 1.745490 -6.893527 -2.517684 0.000009 -0.000000 -0.000000 0.000002 -0.000000 -9.892165 -11.679538 -14.340361 26.035841 0.737390 -1.353404 -16.819727 -9.622358 8.012810 -2.518102 0.000000 -0.000003 -0.000000 -0.000000 -0.000000 
-1.975659 91.193848 0.279656 1.105681 6.015148 5.693749 8.123639 -1.293915 6.633657 1.966687 -0.503289 1.325314 1.959777 -0.493537 1.332815 1.524706 0.316484 3.633393 -6.840198 -13.129489 -1.161053 0.000000 -0.000000 -0.000000 0.638527 -5.362369 -12.762703 5.906808 -5.087488 -42.408826 0.000024 -65.558601 0.000045 -5.511696 -8.054028 -59.056411 -7.220050 -16.942344 15.004587 8.201853 0.319198 4.980763 -0.095869 -18.265813 11.621324 -0.000001 0.000001 -0.000001 9.456713 25.641281 -47.914320 1.106379 3.427791 -35.767607 0.497376 2.364136 -23.758212 0.000001 -0.000003 0.000001 6.558670 12.601987 -38.009228 2.513634 4.808596 -55.175395 0.033448 0.625820 -6.118593 -0.000000 -0.000002 0.000008 0.828529 5.251741 -29.562889 1.128920 3.458810 -36.143261 0.565377 2.512846 -25.356490 0.000000 0.000001 0.000006 -0.919224 -1.438413 -13.606786 1.147744 3.484401 -36.453843 0.124460 1.202385 -11.818800 -0.000003 0.000003 0.000001 1.812177 19.996176 11.753380 -12.150145 22.247782 60.206055 0.000013 98.202602 0.000000 -19.507444 -7.108534 -5.826927 16.071982 47.646324 13.324332 30.992014 -39.602827 28.049295 11.720511 -46.810292 8.562876 0.000004 -0.000002 0.000002 3.371432 -6.917988 54.010964 1.511641 -3.436088 47.481928 0.007345 -0.261647 3.213572 -0.000001 0.000000 0.000003 3.365018 -6.810622 63.420793 1.122373 -3.034169 40.592774 0.312550 -1.678905 21.088259 0.000000 -0.000000 -0.000006 5.185256 -7.516149 67.366484 0.702893 -2.462252 31.861115 0.704834 -2.465330 31.905774 -0.000000 0.000001 -0.000007 0.778631 -22.552053 59.955578 0.974795 -2.853187 37.719761 0.508987 -2.118843 27.011522 -0.000002 -0.000002 0.000002 -7.849134 5.879590 2.831858 15.651978 3.566384 -0.517276 -6.209406 1.755320 -6.840701 -2.463928 0.000013 -0.000002 -0.000000 0.000002 0.000000 -9.614516 -11.066835 -14.289443 26.020888 0.322682 -1.339644 -16.837939 -9.724415 8.228251 -2.518102 0.000001 -0.000003 -0.000000 0.000001 -0.000000 
-1.902574 91.192543 0.358922 1.030982 5.896589 5.652951 8.068915 -1.715578 6.622378 1.960706 -0.619251 1.297406 1.952977 -0.608263 1.307202 1.554705 0.385659 3.484316 -7.572358 -12.570903 -1.431680 -0.000000 -0.000001 -0.000000 0.638616 -5.466736 -12.525824 6.178442 -5.316453 -42.390978 0.000033 -65.547167 0.000022 -5.721596 -8.083198 -59.018763 -7.220047 -16.942339 15.004583 8.186013 0.286580 4.993261 -0.088218 -18.286419 11.653989 0.000001 0.000001 -0.000002 9.452596 25.641845 -47.903948 1.107761 3.429705 -35.790785 0.497257 2.363901 -23.755488 -0.000001 0.000003 -0.000000 6.557040 12.602407 -37.998859 2.511797 4.807305 -55.153033 0.033433 0.625632 -6.117064 0.000001 -0.000000 0.000005 0.825179 5.245845 -29.496752 1.129125 3.459098 -36.146495 0.565947 2.514046 -25.369384 -0.000002 -0.000002 0.000004 -0.908697 -1.473421 -13.455699 1.146520 3.482730 -36.433698 0.124647 1.203338 -11.828136 -0.000001 0.000003 -0.000003 1.973435 20.822761 11.448875 -7.453069 26.678273 58.483003 0.000020 100.113703 0.000015 -18.399611 -7.375243 -6.326795 14.240150 45.930010 13.648381 30.992069 -39.602772 28.049307 11.962940 -47.084278 8.667106 -0.000001 0.000000 -0.000002 3.401061 -6.939476 54.414594 1.537032 -3.459143 47.904024 0.007767 -0.269095 3.305235 -0.000001 0.000000 -0.000003 3.434635 -6.844226 63.476780 1.148657 -3.064534 41.086924 0.301797 -1.650808 20.718921 0.000000 0.000000 -0.000004 5.181712 -7.519938 67.252570 0.716554 -2.484080 32.177533 0.717304 -2.485187 32.194192 0.000000 -0.000001 -0.000000 0.789321 -22.557675 60.087428 0.947285 -2.817289 37.163493 0.521558 -2.143345 27.349966 -0.000002 0.000000 0.000000 -7.633901 5.938535 2.847887 15.684051 3.593434 -0.546462 -6.437914 1.761623 -6.786292 -2.383018 0.000003 -0.000002 -0.000000 0.000000 -0.000000 -9.287666 -10.441883 -14.215237 25.943809 -0.138915 -1.323477 -16.810083 -9.828575 8.473968 -2.518102 0.000000 -0.000003 0.000000 0.000000 -0.000000 
-1.807709 91.206741 0.421645 0.881218 5.744940 5.594832 8.020142 -2.151265 6.567358 1.949552 -0.739108 1.258279 1.941191 -0.727062 1.270347 1.601421 0.445810 3.335897 -8.213469 -12.101378 -1.765318 -0.000001 -0.000001 0.000000 0.646574 -5.587140 -12.181945 6.521548 -5.578315 -42.384964 0.000048 -65.581625 0.000038 -5.859449 -8.137488 -58.775055 -7.220044 -16.942342 15.004583 8.169601 0.230793 5.008054 -0.083673 -18.287796 11.664114 -0.000000 0.000002 -0.000005 9.451365 25.642023 -47.900800 1.104331 3.424966 -35.733511 0.497202 2.363766 -23.754095 0.000001 -0.000000 -0.000000 6.556067 12.603326 -37.989724 2.513280 4.808352 -55.171027 0.033431 0.625590 -6.116667 -0.000000 -0.000001 0.000003 0.821425 5.239194 -29.421829 1.129723 3.459910 -36.156395 0.566528 2.515271 -25.382641 -0.000002 -0.000001 0.000004 -0.897880 -1.497700 -13.331419 1.144925 3.480584 -36.407558 0.125344 1.206600 -11.860706 -0.000002 -0.000004 -0.000001 2.127744 21.749851 11.226045 -2.955929 31.958226 55.283951 -0.000200 100.837914 0.000225 -16.709578 -7.936581 -6.294449 12.418480 44.205790 13.887508 30.992154 -39.602745 28.049341 12.212718 -47.363896 8.775927 -0.000000 0.000001 0.000004 3.431885 -6.961502 54.827035 1.563127 -3.482509 48.335265 0.008217 -0.276708 3.398877 -0.000002 -0.000005 -0.000002 3.505781 -6.878435 63.534037 1.175783 -3.095340 41.591785 0.291015 -1.622024 20.341434 0.000000 0.000001 -0.000006 5.177913 -7.523769 67.136211 0.730657 -2.506292 32.501032 0.730113 -2.505461 32.488853 -0.000000 -0.000000 -0.000003 0.800275 -22.563462 60.222140 0.919557 -2.780352 36.595187 0.534565 -2.168282 27.695727 -0.000001 0.000000 0.000004 -7.333143 6.005937 2.875671 15.719535 3.663629 -0.570124 -6.670359 1.770833 -6.736280 -2.295776 0.000001 -0.000000 -0.000000 -0.000000 0.000000 -8.879281 -9.817253 -14.131672 25.810515 -0.582617 -1.307954 -16.728991 -9.925003 8.727229 -2.518102 -0.000002 -0.000003 -0.000000 -0.000001 -0.000000 
-1.691713 91.240959 0.478180 0.720579 5.378961 5.499028 7.971239 -2.429967 6.425344 1.926870 -0.814443 1.216385 1.918327 -0.802435 1.229825 1.663244 0.476229 3.195925 -8.807588 -11.887715 -2.187535 -0.000000 -0.000001 -0.000001 0.654073 -5.745020 -11.870239 6.829698 -5.875780 -42.297172 -0.000026 -65.743139 -0.000034 -5.904123 -7.972346 -58.424332 -7.220047 -16.942339 15.004583 8.168117 0.201984 5.013516 -0.081364 -18.284230 11.663018 0.000002 0.000002 -0.000002 9.448588 25.642410 -47.893823 1.104017 3.424526 -35.728200 0.497245 2.363848 -23.755021 0.000001 0.000002 -0.000002 6.553125 12.604915 -37.967249 2.517178 4.811043 -55.217582 0.033443 0.625744 -6.118000 -0.000001 0.000001 0.000003 0.819362 5.235607 -29.381483 1.130476 3.460938 -36.168785 0.567596 2.517536 -25.407105 -0.000002 -0.000002 0.000001 -0.888600 -1.524216 -13.230133 1.145386 3.481181 -36.414877 0.124699 1.203540 -11.830162 0.000000 0.000002 -0.000003 2.264673 22.787453 11.057729 1.670473 37.648320 50.461147 -0.000032 100.589985 0.000063 -15.533804 -8.405105 -6.111718 10.630633 42.507518 14.043182 30.992216 -39.602714 28.049362 12.465605 -47.644285 8.887569 -0.000000 -0.000002 -0.000000 3.463226 -6.983489 55.241129 1.589521 -3.505774 48.768217 0.008668 -0.284357 3.492868 -0.000001 -0.000001 -0.000002 3.577296 -6.912661 63.591568 1.203318 -3.126001 42.098691 0.280374 -1.593061 19.962370 0.000000 -0.000001 -0.000004 5.174049 -7.527560 67.019387 0.744911 -2.528534 32.825944 0.743121 -2.525712 32.784727 -0.000000 -0.000000 -0.000003 0.811345 -22.569269 60.357398 0.892044 -2.742981 36.024665 0.547785 -2.193254 28.042873 0.000000 -0.000000 0.000002 -6.911968 6.093869 2.923164 15.734381 3.884328 -0.594953 -6.992096 1.797056 -6.674224 -2.198146 0.000004 -0.000000 0.000000 0.000000 0.000000 -8.533472 -9.181883 -14.017634 25.604952 -0.846516 -1.303051 -16.532613 -9.979558 8.922896 -2.518102 0.000000 -0.000003 -0.000000 0.000000 -0.000000 
